<?xml version="1.0" encoding="UTF-8" standalone="no"?>
<svg width="9px" height="9px" viewBox="0 0 9 9" version="1.1" xmlns="http://www.w3.org/2000/svg" xmlns:xlink="http://www.w3.org/1999/xlink" xmlns:sketch="http://www.bohemiancoding.com/sketch/ns">
    <!-- Generator: Sketch 3.2.2 (9983) - http://www.bohemiancoding.com/sketch -->
    <title>Oval 1 + Shape</title>
    <desc>Created with Sketch.</desc>
    <defs></defs>
    <g id="Page-1" stroke="none" stroke-width="1" fill="none" fill-rule="evenodd" sketch:type="MSPage">
        <g id="Snapme" sketch:type="MSArtboardGroup" transform="translate(-671.000000, -389.000000)">
            <g id="Форма" sketch:type="MSLayerGroup" transform="translate(468.000000, 227.000000)">
                <g id="Работы" transform="translate(0.000000, 124.000000)" sketch:type="MSShapeGroup">
                    <g id="VK.COM-2" transform="translate(108.000000, 34.000000)">
                        <g id="Oval-1-+-Shape" transform="translate(95.000000, 4.000000)">
                            <circle id="Oval-1" fill-opacity="0.5" fill="#000000" cx="4.5" cy="4.5" r="4.5"></circle>
                            <path d="M2.69389806,2.45561992 C3.2924241,3.05464131 3.88019818,3.66442357 4.47872423,4.26344496 C4.4802621,4.2649841 4.86939351,3.89397408 4.90880283,3.85453215 C5.1343855,3.62876278 6.10404981,2.54619708 6.28505433,2.45561992 C6.32040188,2.43793152 6.52975379,2.6441197 6.54310149,2.67083718 C6.57564546,2.73597899 6.26053152,2.97516274 6.22054254,3.01518481 C5.9812465,3.2546789 4.8330216,4.28600248 4.73677139,4.47866223 C4.70353719,4.54518564 5.03879589,4.80245842 5.08083426,4.84453158 C5.56825667,5.33235739 6.05567908,5.82018319 6.54310149,6.308009 C6.54328935,6.30819701 6.34894177,6.53429956 6.32806219,6.54474799 C6.29156595,6.56301121 5.98194495,6.21986603 5.94099146,6.17887863 C5.46073702,5.69822674 4.98048259,5.21757484 4.50022816,4.73692295 C4.48432065,4.72100227 4.1646708,5.07275802 4.13466135,5.1027923 C3.73683865,5.50094424 3.32826399,5.88833532 2.93044128,6.28648727 C2.90893849,6.30800786 2.68812869,6.56049557 2.67239413,6.54474799 C2.64444599,6.51677672 2.43545632,6.33032053 2.45735483,6.28648727 C2.54316839,6.11471811 3.43827374,5.30475654 3.64007097,5.1027923 C3.78224834,4.96049726 4.16136085,4.68347977 4.242181,4.52170568 C4.26833549,4.46935342 3.93839724,4.17462705 3.89811812,4.1343146 C3.66534491,3.90134874 2.55085677,2.90103929 2.45735483,2.71388064 C2.43529816,2.6697308 2.54989688,2.59320854 2.56487448,2.56322855 C2.58891831,2.56307037 2.6806488,2.4423597 2.69389806,2.45561992 Z" id="Shape" fill="#FFFFFF"></path>
                        </g>
                    </g>
                </g>
            </g>
        </g>
    </g>
</svg>