<?xml version="1.0" encoding="UTF-8" standalone="no"?>
<svg width="7px" height="12px" viewBox="0 0 7 12" version="1.1" xmlns="http://www.w3.org/2000/svg" xmlns:xlink="http://www.w3.org/1999/xlink" xmlns:sketch="http://www.bohemiancoding.com/sketch/ns">
    <!-- Generator: Sketch 3.2.2 (9983) - http://www.bohemiancoding.com/sketch -->
    <title>Fill 1</title>
    <desc>Created with Sketch.</desc>
    <defs></defs>
    <g id="Page-1" stroke="none" stroke-width="1" fill="none" fill-rule="evenodd" sketch:type="MSPage">
        <g id="Snapme" sketch:type="MSArtboardGroup" transform="translate(-637.000000, -797.000000)" fill="#ffffff">
            <g id="Imported-Layers-+-Imported-Layers-+-Imported-Layers" sketch:type="MSLayerGroup" transform="translate(551.000000, 797.000000)">
                <g id="Imported-Layers" transform="translate(86.000000, 0.000000)" sketch:type="MSShapeGroup">
                    <path d="M6.92565805,0.0082098131 C6.09717553,0.0082098131 5.28397351,-0.0156552224 4.47396388,0.0179926083 C4.05091661,0.0355954087 3.61653451,0.112829642 3.21676668,0.235613069 C2.22830528,0.539191275 1.78843512,1.22461005 1.70460762,2.08667993 C1.64893785,2.6592227 1.67225315,3.23752921 1.66052376,3.81324983 C1.6594118,3.86792755 1.66038028,3.92260528 1.66038028,3.98859241 L0.0572915323,3.98859241 L0.0572915323,5.98468766 L1.66500747,5.98468766 L1.66500747,11.95104 L4.64391453,11.95104 L4.64391453,5.9748114 L6.66093965,5.9748114 C6.75186935,5.30886475 6.84140012,4.65326169 6.93354939,3.97852922 L4.64161887,3.97852922 C4.64161887,3.52054486 4.62877752,3.0793221 4.64542106,2.63890938 C4.66037873,2.24376546 4.85712405,2.06948215 5.31270514,2.01857423 C5.50733414,1.99679661 5.70547838,1.99430418 5.90215196,1.99196752 C6.24086956,1.98791732 6.5796589,1.99084593 6.92565805,1.99084593 L6.92565805,0.0082098131" id="Fill-1"></path>
                </g>
            </g>
        </g>
    </g>
</svg>