<?xml version="1.0" encoding="UTF-8" standalone="no"?>
<svg width="84px" height="14px" viewBox="0 0 84 14" version="1.1" xmlns="http://www.w3.org/2000/svg" xmlns:xlink="http://www.w3.org/1999/xlink" xmlns:sketch="http://www.bohemiancoding.com/sketch/ns">
    <!-- Generator: Sketch 3.2.2 (9983) - http://www.bohemiancoding.com/sketch -->
    <title>Group</title>
    <desc>Created with Sketch.</desc>
    <defs></defs>
    <g id="Page-1" stroke="none" stroke-width="1" fill="none" fill-rule="evenodd" sketch:type="MSPage">
        <g id="Snapme" sketch:type="MSArtboardGroup" transform="translate(-1136.000000, -796.000000)" fill="#FFFFFF">
            <g id="Group" sketch:type="MSLayerGroup" transform="translate(1136.000000, 796.000000)">
                <path d="M10.1468552,8.63429778 C9.34750746,10.0146356 7.70765821,10.6821556 6.16205821,10.2563689 C4.61655224,9.83058222 3.55787015,8.41966222 3.58949552,6.82783111 C3.62121493,5.23603111 4.73518657,3.86779556 6.29648955,3.50295556 C7.85779254,3.13811556 9.4698403,3.86938222 10.2135851,5.27986667 L13.1707612,3.95580889 C11.7641373,1.10895556 8.56555522,-0.398968889 5.45366866,0.317737778 C2.34190746,1.03444444 0.139038806,3.78637778 0.139038806,6.95722222 C0.139038806,10.12788 2.34190746,12.8798133 5.45366866,13.59652 C8.56555522,14.3132267 11.7641373,12.8053022 13.1707612,9.95848 L10.1468552,8.63429778 Z" id="Fill-48" sketch:type="MSShapeGroup"></path>
                <path d="M24.2450328,0.292506667 C27.9945358,0.292506667 31.0342701,3.30972444 31.0342701,7.03148444 C31.0342701,10.7532133 27.9945358,13.7704311 24.2450328,13.7704311 C20.4954045,13.7704311 17.4557642,10.7532133 17.4557642,7.03148444 C17.4557642,3.30972444 20.4954045,0.292506667 24.2450328,0.292506667 L24.2450328,0.292506667 Z M24.2450328,3.47268444 C26.2251448,3.47268444 27.8304537,5.06610222 27.8304537,7.03148444 C27.8304537,8.99686667 26.2251448,10.5902533 24.2450328,10.5902533 C22.2648896,10.5902533 20.6596119,8.99686667 20.6596119,7.03148444 C20.6596119,5.06610222 22.2648896,3.47268444 24.2450328,3.47268444 L24.2450328,3.47268444 Z" id="Fill-49" sketch:type="MSShapeGroup"></path>
                <path d="M36.2794433,0.534675556 L62.8051075,0.534675556 C66.1435433,0.534675556 68.8750478,3.24594667 68.8750478,6.55965333 L68.8750478,7.31005333 C68.8750478,10.6236667 66.1435433,13.3350311 62.8051075,13.3350311 L36.2794433,13.3350311 L36.2794433,0.534675556 Z M62.849709,3.71230222 L62.849709,3.71230222 L39.6815687,3.71230222 L39.6815687,10.3112178 L62.7674328,10.2526667 L62.8489881,10.2516089 C64.3532776,10.2516089 65.5846925,9.02331111 65.5846925,7.53019556 L65.5846925,6.42721333 C65.5846925,4.93397333 64.3539672,3.71230222 62.849709,3.71230222 L62.849709,3.71230222 Z" id="Fill-50" sketch:type="MSShapeGroup"></path>
                <path d="M73.8653373,0.50064 L77.2004821,0.50064 L83.8263269,0.50064 L83.8263269,3.70076 L77.2004821,3.70076 L77.2004821,5.58217333 L82.6812627,5.58217333 L82.6812627,8.58915556 L77.2004821,8.58915556 L77.2004821,10.23344 L83.8263269,10.23344 L83.8263269,13.4334667 L77.2004821,13.4334667 L73.8653373,13.4334667 L73.8653373,0.50064" id="Fill-51" sketch:type="MSShapeGroup"></path>
                <path d="M42.9385433,6.54378667 C42.9390761,6.57853778 42.9344687,6.61291556 42.9253164,6.64776 C42.9160701,6.68207556 42.8994582,6.71408889 42.8757313,6.74264889 C42.8515657,6.77130222 42.8181537,6.79469778 42.7754955,6.81187111 C42.7323358,6.82960444 42.6769836,6.83816 42.6101597,6.83878222 L42.4719045,6.83878222 L42.4719045,6.24172889 L42.6170866,6.24172889 C42.6959776,6.24235111 42.7593224,6.25778222 42.8066821,6.28637333 C42.8538851,6.31546222 42.8877985,6.35267111 42.9080776,6.39846667 C42.9287642,6.44423111 42.9390761,6.49229778 42.9385433,6.54378667 L42.9385433,6.54378667 Z M41.8531881,8.10481778 L42.4719045,8.10481778 L42.4719045,7.31571556 L42.6378045,7.31571556 C42.844106,7.31509333 43.0157418,7.28308 43.1522104,7.22020444 C43.2887731,7.15785778 43.3907642,7.06807111 43.4587478,6.95193333 C43.5267,6.83585778 43.5607388,6.69750667 43.5607388,6.53681778 C43.5601119,6.40472 43.5359463,6.29041778 43.4892134,6.19316444 C43.4420418,6.09597333 43.3770045,6.01589333 43.2940075,5.95248889 C43.210509,5.88952 43.1136582,5.84207556 43.0036746,5.81121333 C42.893597,5.78035111 42.7749627,5.76488889 42.6481791,5.76488889 L41.8531881,5.76488889 L41.8531881,8.10481778 Z M45.1299403,7.12699556 C45.2130313,7.09831111 45.2873149,7.05609333 45.3529478,7.00009333 C45.4186119,6.94337778 45.4710493,6.87368889 45.5096955,6.78956444 C45.5482478,6.70553333 45.5684015,6.60772 45.5690284,6.49562667 C45.5695612,6.38928889 45.5528552,6.29209778 45.5194746,6.20346222 C45.4860627,6.11482667 45.4324657,6.03757778 45.3582134,5.97187111 C45.2838358,5.90672444 45.1859194,5.85582667 45.0644015,5.81976889 C44.9427582,5.78377333 44.794191,5.76541778 44.6184493,5.76488889 L43.851103,5.76488889 L43.851103,8.10481778 L44.4698194,8.10481778 L44.4698194,7.21958222 L44.5320045,7.21958222 L45.1299403,8.10481778 L45.8489866,8.10481778 L45.1299403,7.12699556 Z M44.9364582,6.52658222 C44.9359254,6.58603556 44.9232,6.63637333 44.8978119,6.67688 C44.8725806,6.71751111 44.8379149,6.74837333 44.794191,6.76956 C44.7504045,6.79009333 44.6996597,6.80104444 44.6426149,6.80104444 L44.4698194,6.80104444 L44.4698194,6.24172889 L44.6391672,6.24172889 C44.7348582,6.24235111 44.8079821,6.26801778 44.8592284,6.31838667 C44.9099731,6.36863111 44.9359254,6.43788444 44.9364582,6.52658222 L44.9364582,6.52658222 Z M46.4573284,6.93482222 C46.4579552,6.83585778 46.4740343,6.7438 46.5057537,6.65976889 C46.5368463,6.57632889 46.581197,6.50250222 46.6382104,6.44015556 C46.6946284,6.37790222 46.7609194,6.32930667 46.8364567,6.2944 C46.9124015,6.26008444 46.9943328,6.24235111 47.083003,6.24172889 C47.1774403,6.24235111 47.2627254,6.26061333 47.3381687,6.29608 C47.4136746,6.33151556 47.4781791,6.38082667 47.5317448,6.44423111 C47.5853418,6.50710667 47.6268403,6.58090222 47.6550806,6.66443556 C47.6838537,6.74784444 47.6982716,6.83816 47.6982716,6.93482222 C47.6976448,7.03322667 47.6821925,7.12407111 47.651006,7.20810222 C47.6204149,7.29225778 47.5766284,7.36543111 47.5208373,7.42824444 C47.4649522,7.49068444 47.3992881,7.53987111 47.3238448,7.57471556 C47.2483388,7.60956 47.1653418,7.62729333 47.0760761,7.62788444 C46.987406,7.62729333 46.9054746,7.60956 46.8306582,7.57471556 C46.7557791,7.53987111 46.6901149,7.49068444 46.6348567,7.42824444 C46.5788776,7.36543111 46.5350597,7.29225778 46.504594,7.20810222 C46.4735015,7.12407111 46.4579552,7.03322667 46.4573284,6.93482222 L46.4573284,6.93482222 Z M45.8283,6.93482222 C45.8283,7.03148444 45.8391448,7.12864444 45.8604582,7.22698667 C45.8823985,7.32542222 45.9152776,7.42090222 45.9595343,7.51414222 C46.0044806,7.60672889 46.0604597,7.69306222 46.1284119,7.77376444 C46.1963955,7.85375111 46.2770731,7.92465333 46.3698179,7.98532 C46.4619358,8.04651556 46.5673119,8.09396 46.6854761,8.12818222 C46.8035776,8.16196889 46.9349687,8.17970222 47.0794299,8.18032444 C47.2229194,8.17970222 47.3576955,8.15798667 47.4839463,8.11567556 C47.6101343,8.07395556 47.7247254,8.01444 47.8278761,7.93725333 C47.9309642,7.86062667 48.019697,7.77031111 48.0940746,7.66677333 C48.168891,7.56273778 48.2259985,7.44896444 48.2662433,7.32542222 C48.3065821,7.20132 48.3267672,7.07152444 48.327394,6.93482222 C48.327394,6.80446667 48.3089015,6.67809333 48.2732015,6.55632444 C48.2368433,6.43443111 48.1839985,6.32118667 48.1147612,6.21609333 C48.0450224,6.11140444 47.9597373,6.01993778 47.8595015,5.94091556 C47.7587642,5.86208 47.6435149,5.80088444 47.5144433,5.75689333 C47.3848075,5.71224889 47.2419448,5.69003556 47.0864507,5.68941333 C46.9395134,5.69003556 46.8018851,5.71172 46.6739418,5.75512 C46.5466254,5.79805333 46.4307806,5.85865778 46.3271597,5.93590667 C46.2233821,6.01359111 46.1341791,6.10452889 46.0598328,6.20859556 C45.9854552,6.31325333 45.9285045,6.42649778 45.8886985,6.54941778 C45.8489866,6.67236889 45.8288328,6.80104444 45.8283,6.93482222 L45.8283,6.93482222 Z M48.6556836,5.76488889 L48.6556836,8.10481778 L49.4818612,8.10481778 C49.6477299,8.10428889 49.7998388,8.08428444 49.9369343,8.04415111 C50.0740299,8.00411111 50.1956731,7.94811111 50.3016448,7.87552889 C50.4076478,7.80347556 50.4969448,7.71829333 50.5694418,7.62100889 C50.6426597,7.52322667 50.6979179,7.41632889 50.7354045,7.30028444 C50.772891,7.18420889 50.7919164,7.06234667 50.7919164,6.93482222 C50.7919164,6.80676889 50.7739567,6.68434667 50.7383507,6.56830222 C50.7019925,6.45163556 50.6489597,6.34473778 50.5780612,6.24748444 C50.5072567,6.14967111 50.4197463,6.06511111 50.314903,5.99296444 C50.2100597,5.92091111 50.0885104,5.86491111 49.9507881,5.82549333 C49.813097,5.78545333 49.6586687,5.76541778 49.488694,5.76488889 L48.6556836,5.76488889 Z M49.2744,7.56952 L49.2744,6.30012444 L49.4541537,6.30012444 C49.6143493,6.30065333 49.746806,6.32815556 49.8516493,6.38135556 C49.9565866,6.43505333 50.0342239,6.50888 50.0861284,6.60376889 C50.1373746,6.69865778 50.162794,6.80907111 50.162794,6.93482222 C50.162794,7.02177778 50.1495358,7.10406667 50.1219224,7.18016444 C50.0948104,7.25679111 50.0527164,7.32374222 49.9951388,7.38195111 C49.938094,7.44031556 49.8643433,7.48608 49.7750463,7.51924444 C49.6852478,7.55240889 49.5785239,7.56899111 49.4541537,7.56952 L49.2744,7.56952 Z M52.0051209,8.18032444 C52.1445358,8.18032444 52.2706925,8.16134667 52.3836224,8.12317333 C52.4965209,8.08481333 52.5927448,8.02473778 52.6734224,7.94412889 C52.7541,7.86292889 52.8162851,7.75886222 52.8594761,7.63196 C52.9021343,7.50434222 52.9239806,7.35220889 52.9246075,7.17496889 L52.9246075,5.76488889 L52.3093388,5.76488889 L52.3093388,7.21612889 C52.3098716,7.27735556 52.3053269,7.33509778 52.2960806,7.38888889 C52.2874925,7.44208889 52.2713194,7.48953333 52.2488149,7.53063111 C52.2263418,7.57129333 52.1952493,7.60336889 52.1549104,7.62676444 C52.1145716,7.65022222 52.0633254,7.66157778 52.0016418,7.6622 C51.9060448,7.66272889 51.8323254,7.62623556 51.7798881,7.55240889 C51.728109,7.47920444 51.7016239,7.36720444 51.700903,7.21612889 L51.700903,5.76488889 L51.0822806,5.76488889 L51.0822806,7.18193778 C51.0828134,7.36484 51.1059134,7.52039556 51.1512985,7.64729778 C51.1962448,7.77491556 51.2602164,7.87773778 51.3425866,7.95613778 C51.4250507,8.03506667 51.5229358,8.09159556 51.634706,8.12765333 C51.747009,8.16312 51.8703448,8.18085333 52.0051209,8.18032444 L52.0051209,8.18032444 Z M54.4420299,5.68941333 C54.2617433,5.69056444 54.0964075,5.72142667 53.9471507,5.78324444 C53.7973299,5.84434667 53.6683522,5.93071111 53.5588701,6.04224444 C53.4494194,6.15371556 53.3653567,6.28469333 53.305397,6.43443111 C53.2460642,6.58488444 53.2154731,6.74961778 53.2149403,6.92804 C53.2154731,7.07037333 53.2339657,7.20477333 53.2708254,7.33114667 C53.3077164,7.45689778 53.3612821,7.57182222 53.4310209,7.67542222 C53.500697,7.77939556 53.5853552,7.86865333 53.684494,7.94412889 C53.7835701,8.01901333 53.8958731,8.07740889 54.0209642,8.11794667 C54.1453657,8.15913778 54.2813015,8.17970222 54.4281448,8.18032444 C54.5653343,8.17970222 54.6908955,8.16312 54.8061134,8.12995556 C54.9208299,8.09679111 55.0244194,8.05040444 55.1166313,7.99098222 C55.2088746,7.93205778 55.2900537,7.8624 55.359197,7.78284889 C55.4288418,7.70339111 55.4865134,7.61758667 55.5326194,7.52434667 C55.5780985,7.43113778 55.6126701,7.33394667 55.6345164,7.23333333 L54.9501358,7.23333333 C54.9398239,7.28308 54.922491,7.33282667 54.8977299,7.38254222 C54.8734701,7.43291111 54.8407791,7.47920444 54.7998134,7.52101778 C54.7588478,7.56326667 54.7087299,7.59692889 54.6500239,7.62268889 C54.5906597,7.64844889 54.5215478,7.66157778 54.4420299,7.6622 C54.3510403,7.66157778 54.2685761,7.64157333 54.1954836,7.60215556 C54.1222657,7.56273778 54.0595478,7.50891556 54.0071104,7.44093778 C53.9547045,7.37292889 53.9143657,7.29515111 53.8867209,7.20757333 C53.8584806,7.12008889 53.844094,7.02803111 53.844094,6.93136889 C53.844094,6.83190667 53.856694,6.73869778 53.8826463,6.65183556 C53.9080343,6.56488 53.945991,6.48769333 53.996109,6.42139556 C54.0461955,6.35506667 54.1084746,6.30301778 54.1822254,6.26518667 C54.256509,6.22744889 54.341794,6.20806667 54.4385507,6.20744444 C54.5076627,6.20806667 54.5711015,6.21889333 54.6281463,6.2412 C54.685097,6.26300889 54.7352149,6.29262667 54.7778731,6.32983556 C54.820594,6.36698222 54.8551657,6.40876444 54.8816507,6.45505778 C54.9075716,6.50138222 54.9248104,6.54882667 54.932897,6.59854222 L55.5930493,6.59854222 C55.5810448,6.50940889 55.5550925,6.42139556 55.5146597,6.33381778 C55.4737881,6.24695556 55.4202224,6.16457333 55.3533985,6.08741778 C55.286606,6.01016889 55.2082478,5.94153778 55.1171642,5.88211556 C55.0261746,5.82204 54.9241836,5.77574667 54.8107209,5.74143111 C54.6978224,5.70714667 54.5751134,5.69003556 54.4420299,5.68941333 L54.4420299,5.68941333 Z M56.2290985,8.10481778 L56.851294,8.10481778 L56.851294,6.28979556 L57.3801179,6.28979556 L57.3801179,5.76488889 L55.7002746,5.76488889 L55.7002746,6.28979556 L56.2290985,6.28979556 L56.2290985,8.10481778 Z M57.6150985,8.10481778 L58.2339403,8.10481778 L58.2339403,5.76488889 L57.6150985,5.76488889 L57.6150985,8.10481778 Z M59.1878731,6.93482222 C59.1885,6.83585778 59.2045791,6.7438 59.2362985,6.65976889 C59.267391,6.57632889 59.3117418,6.50250222 59.3687552,6.44015556 C59.4251731,6.37790222 59.4915582,6.32930667 59.5670015,6.2944 C59.6429463,6.26008444 59.7248776,6.24235111 59.8135478,6.24172889 C59.9079851,6.24235111 59.9932701,6.26061333 60.0687134,6.29608 C60.1442194,6.33151556 60.2087239,6.38082667 60.2622896,6.44423111 C60.3158866,6.50710667 60.3573851,6.58090222 60.3856254,6.66443556 C60.4143985,6.74784444 60.4288164,6.83816 60.4288164,6.93482222 C60.4282836,7.03322667 60.4127373,7.12407111 60.3815507,7.20810222 C60.3510537,7.29225778 60.3071731,7.36543111 60.2513821,7.42824444 C60.195497,7.49068444 60.1298328,7.53987111 60.0543896,7.57471556 C59.9788836,7.60956 59.8959806,7.62729333 59.8066209,7.62788444 C59.7179507,7.62729333 59.6361134,7.60956 59.561203,7.57471556 C59.4863239,7.53987111 59.4206597,7.49068444 59.3654015,7.42824444 C59.3094224,7.36543111 59.2656045,7.29225778 59.2351388,7.20810222 C59.2040463,7.12407111 59.1885,7.03322667 59.1878731,6.93482222 L59.1878731,6.93482222 Z M58.5588448,6.93482222 C58.5588448,7.03148444 58.5697522,7.12864444 58.591003,7.22698667 C58.6129433,7.32542222 58.6458224,7.42090222 58.6901418,7.51414222 C58.7351194,7.60672889 58.7910045,7.69306222 58.8589567,7.77376444 C58.9269403,7.85375111 59.0076179,7.92465333 59.1003627,7.98532 C59.1925119,8.04651556 59.2979507,8.09396 59.4160209,8.12818222 C59.5341224,8.16196889 59.6655134,8.17970222 59.8100687,8.18032444 C59.9534642,8.17970222 60.0883343,8.15798667 60.214491,8.11567556 C60.3406791,8.07395556 60.4552701,8.01444 60.5584209,7.93725333 C60.6615716,7.86062667 60.7503358,7.77031111 60.8246194,7.66677333 C60.8995299,7.56273778 60.9565433,7.44896444 60.9968821,7.32542222 C61.0371269,7.20132 61.0573119,7.07152444 61.0579388,6.93482222 C61.0579388,6.80446667 61.0394463,6.67809333 61.0037463,6.55632444 C60.9673881,6.43443111 60.9145433,6.32118667 60.845306,6.21609333 C60.7756612,6.11140444 60.6902821,6.01993778 60.5900463,5.94091556 C60.489309,5.86208 60.3740597,5.80088444 60.2449881,5.75689333 C60.1154463,5.71224889 59.9725836,5.69003556 59.8169955,5.68941333 C59.6700582,5.69003556 59.5324299,5.71172 59.4044866,5.75512 C59.2771701,5.79805333 59.1613881,5.85865778 59.0577045,5.93590667 C58.9539269,6.01359111 58.8647552,6.10452889 58.7904716,6.20859556 C58.716,6.31325333 58.6590493,6.42649778 58.6193373,6.54941778 C58.5795313,6.67236889 58.5593776,6.80104444 58.5588448,6.93482222 L58.5588448,6.93482222 Z M61.9012612,6.66726667 C61.9180612,6.69405333 61.9358328,6.72500889 61.9554537,6.75985333 C61.9744791,6.79469778 61.9981119,6.83648 62.0252239,6.88560444 C62.0528373,6.9342 62.0867821,6.99371556 62.1283746,7.06356 C62.1697478,7.13272 62.2203985,7.2156 62.2815179,7.31226222 L62.7827284,8.10481778 L63.3012403,8.10481778 L63.3012403,5.76488889 L62.7827284,5.76488889 L62.7827284,6.84565778 C62.7827284,6.86911556 62.7832612,6.89708444 62.7838881,6.92909778 C62.7844209,6.96117333 62.7855493,6.99486667 62.786803,7.03033333 C62.7878687,7.06576889 62.7890284,7.10008444 62.7901881,7.13387111 C62.7913478,7.16703556 62.7925701,7.19665333 62.793103,7.22309778 L62.7827284,7.22309778 C62.7677776,7.19497333 62.7522313,7.16526222 62.7372179,7.13387111 C62.7216716,7.10238667 62.7038373,7.06639111 62.6830254,7.02625778 C62.6623388,6.98631111 62.6369194,6.93939556 62.6064537,6.88560444 C62.575894,6.83243556 62.5379373,6.76956 62.4924582,6.69812889 L61.9047403,5.76488889 L61.3828433,5.76488889 L61.3828433,8.10481778 L61.9012612,8.10481778 L61.9012612,7.08580444 C61.9012612,7.06119556 61.9007284,7.03033333 61.8995687,6.99371556 C61.898409,6.95712889 61.8972806,6.91824 61.8955881,6.87767111 C61.8943343,6.83710222 61.8926418,6.79821333 61.8909493,6.76100444 C61.8898209,6.72385778 61.8886612,6.69290222 61.8875015,6.66726667 L61.9012612,6.66726667 Z" id="Fill-52" sketch:type="MSShapeGroup"></path>
            </g>
        </g>
    </g>
</svg>