<?xml version="1.0" encoding="UTF-8" standalone="no"?>
<svg width="17px" height="17px" viewBox="0 0 17 17" version="1.1" xmlns="http://www.w3.org/2000/svg" xmlns:xlink="http://www.w3.org/1999/xlink" xmlns:sketch="http://www.bohemiancoding.com/sketch/ns">
    <!-- Generator: Sketch 3.2.2 (9983) - http://www.bohemiancoding.com/sketch -->
    <title>Shape 2</title>
    <desc>Created with Sketch.</desc>
    <defs></defs>
    <g id="Page-1" stroke="none" stroke-width="1" fill="none" fill-rule="evenodd" sketch:type="MSPage">
        <g id="Snapme" sketch:type="MSArtboardGroup" transform="translate(-472.000000, -531.000000)" fill="#FFFFFF">
            <g id="Форма" sketch:type="MSLayerGroup" transform="translate(468.000000, 227.000000)">
                <g id="Тип-съемки" transform="translate(0.000000, 200.000000)" sketch:type="MSShapeGroup">
                    <g id="другое-+-Shape-2" transform="translate(0.000000, 100.000000)">
                        <path d="M6.65986235,6.65986235 C5.63856879,7.84001254 4.80019015,9.07360794 4.42909311,10.9290931 L4.42909311,11.1598623 L4.39063158,11.1598623 L4.39063158,11.5060162 L4.35217004,11.5060162 L4.35217004,12.0444777 L4.3137085,12.0444777 L4.3137085,12.5829393 L4.35217004,12.5829393 L4.35217004,13.1214008 L4.39063158,13.1214008 C4.34376857,13.3585433 4.43759726,13.5100754 4.46755465,13.6598623 C4.47903402,14.378291 4.82593514,14.9273115 5.00601619,15.4675547 C5.79771535,17.8426521 8.19218138,19.5237113 10.7367854,20.1598623 L10.9675547,20.1598623 L10.9675547,20.1983239 L11.1983239,20.1983239 L11.1983239,20.2367854 L11.5060162,20.2367854 L11.5060162,20.275247 L12.1214008,20.275247 L12.1214008,20.3137085 L12.5060162,20.3137085 L12.5060162,20.275247 L13.1214008,20.275247 L13.1214008,20.2367854 L13.4290931,20.2367854 L13.4290931,20.1983239 L13.6598623,20.1983239 L13.6598623,20.1598623 C14.3741401,20.1452261 14.9283947,19.8011208 15.4675547,19.6214008 C17.8285247,18.8344108 19.6740602,16.3196425 20.1983239,13.6983239 L20.1983239,13.4675547 L20.2367854,13.4675547 L20.2367854,13.1214008 L20.275247,13.1214008 L20.275247,12.5444777 L20.3137085,12.5444777 L20.3137085,12.0829393 L20.275247,12.0829393 L20.275247,11.5060162 L20.2367854,11.5060162 C20.2836484,11.2688737 20.1898197,11.1173416 20.1598623,10.9675547 C20.148383,10.249126 19.8014819,9.70010549 19.6214008,9.15986235 C18.8297016,6.78476487 16.4352356,5.10370566 13.8906316,4.46755465 L13.6598623,4.46755465 L13.6598623,4.42909311 L13.4290931,4.42909311 L13.4290931,4.39063158 L13.1214008,4.39063158 L13.1214008,4.35217004 L12.5060162,4.35217004 L12.5060162,4.3137085 L12.1214008,4.3137085 L12.1214008,4.35217004 L11.5060162,4.35217004 L11.5060162,4.39063158 L11.1983239,4.39063158 L11.1983239,4.42909311 L10.9675547,4.42909311 L10.9675547,4.46755465 C9.77599805,4.56953521 8.91505391,5.10918964 8.04447773,5.54447773 C7.75607562,5.68867878 7.53647451,5.97155626 7.23678542,6.12140081 C7.0252246,6.22718122 6.88380448,6.54789128 6.65986235,6.65986235 L6.65986235,6.65986235 Z M10.9290931,5.08293927 L11.1598623,5.08293927 C11.2496059,5.04447773 11.3393495,5.04447773 11.4290931,5.04447773 C11.5701188,5.00601619 11.7111444,5.00601619 11.85217,5.00601619 C12.1598623,4.96755465 12.4675547,4.96755465 12.775247,4.96755465 C12.9162726,5.00601619 13.0572982,5.00601619 13.1983239,5.00601619 C13.2880675,5.04447773 13.3778111,5.04447773 13.4675547,5.04447773 C14.1218871,5.09302973 14.6285975,5.38020995 15.1214008,5.54447773 C17.440367,6.31746645 18.9246684,8.41139442 19.5444777,10.8906316 L19.5444777,11.1214008 C19.5829393,11.2111444 19.5829393,11.300888 19.5829393,11.3906316 C19.6214008,11.5316572 19.6214008,11.6726829 19.6214008,11.8137085 C19.6598623,12.1470418 19.6598623,12.4803752 19.6598623,12.8137085 C19.6214008,12.9547341 19.6214008,13.0957598 19.6214008,13.2367854 C19.5829393,13.326529 19.5829393,13.4162726 19.5829393,13.5060162 C19.5349348,14.1430509 19.2423626,14.6431309 19.0829393,15.1214008 C18.3310615,17.377034 16.1925372,19.0456351 13.6983239,19.5444777 L13.4675547,19.5444777 C13.3778111,19.5829393 13.2880675,19.5829393 13.1983239,19.5829393 C13.0572982,19.6214008 12.9162726,19.6214008 12.775247,19.6214008 C12.4675547,19.6598623 12.1598623,19.6598623 11.85217,19.6598623 C11.7111444,19.6214008 11.5701188,19.6214008 11.4290931,19.6214008 C11.3393495,19.5829393 11.2496059,19.5829393 11.1598623,19.5829393 C10.6348706,19.537041 10.2086182,19.3299605 9.8137085,19.1983239 C7.38230448,18.3878559 5.6204904,16.3860796 5.08293927,13.6983239 L5.08293927,13.4675547 C5.04447773,13.3778111 5.04447773,13.2880675 5.04447773,13.1983239 C5.00601619,13.0572982 5.00601619,12.9162726 5.00601619,12.775247 C4.96755465,12.4675547 4.96755465,12.1598623 4.96755465,11.85217 C5.00601619,11.7111444 5.00601619,11.5701188 5.00601619,11.4290931 C5.04447773,11.3393495 5.04447773,11.2496059 5.04447773,11.1598623 C5.09181235,10.0570005 6.39670274,7.48374984 7.12140081,7.12140081 C7.91289009,6.10878134 9.46217635,5.37632262 10.9290931,5.08293927 Z M8.85217004,8.85217004 C8.84835628,8.93716789 8.60702887,9.01573385 8.65986235,9.12140081 C8.89321279,9.58810169 11.6188196,11.8085461 11.85217,12.275247 C11.8952092,12.3613253 11.4132039,12.7911362 11.35217,12.85217 C10.6406316,13.5637085 9.90986235,14.2560162 9.19832388,14.9675547 C9.13361742,15.0322611 8.61556622,15.494347 8.65986235,15.5829393 C8.67853476,15.6202841 9.08260327,15.9678907 9.08293927,15.9675547 C10.1534521,14.8970418 11.2047341,13.8072982 12.275247,12.7367854 C12.282788,12.7292444 12.5236571,12.946734 12.5444777,12.9675547 C13.3457598,13.7688367 14.1278111,14.5893495 14.9290931,15.3906316 C14.9974689,15.4590074 15.491855,16.0130968 15.5829393,15.9675547 C15.6306862,15.9436812 15.9991656,15.5692382 15.9675547,15.5060162 C15.7579381,15.086783 12.9770589,12.832717 12.7367854,12.35217 C12.6912433,12.2610857 13.2453327,11.7666997 13.3137085,11.6983239 C13.6690398,11.3429926 15.8678021,9.320906 15.9675547,9.12140081 C15.9991656,9.05817882 15.6306862,8.68373579 15.5829393,8.65986235 C15.4640551,8.60042026 15.0042822,9.2000579 14.9290931,9.27524696 C14.648575,9.55576508 12.4587628,11.8166391 12.35217,11.85217 C12.1803753,11.9094349 11.9337806,11.5107036 11.85217,11.4290931 L9.08293927,8.65986235 C9.07000183,8.6469249 8.88024974,8.83813019 8.85217004,8.85217004 L8.85217004,8.85217004 Z" id="Shape-2" transform="translate(12.313708, 12.313708) rotate(45.000000) translate(-12.313708, -12.313708) "></path>
                    </g>
                </g>
            </g>
        </g>
    </g>
</svg>