<?xml version="1.0" encoding="UTF-8" standalone="no"?>
<svg width="15px" height="12px" viewBox="0 0 15 12" version="1.1" xmlns="http://www.w3.org/2000/svg" xmlns:xlink="http://www.w3.org/1999/xlink" xmlns:sketch="http://www.bohemiancoding.com/sketch/ns">
    <!-- Generator: Sketch 3.2.2 (9983) - http://www.bohemiancoding.com/sketch -->
    <title>Fill 2</title>
    <desc>Created with Sketch.</desc>
    <defs></defs>
    <g id="Page-1" stroke="none" stroke-width="1" fill="none" fill-rule="evenodd" sketch:type="MSPage">
        <g id="Snapme" sketch:type="MSArtboardGroup" transform="translate(-716.000000, -797.000000)" fill="#FFFFFF">
            <g id="Imported-Layers-+-Imported-Layers-+-Imported-Layers" sketch:type="MSLayerGroup" transform="translate(551.000000, 797.000000)">
                <g id="Imported-Layers" transform="translate(165.000000, 0.000000)" sketch:type="MSShapeGroup">
                    <path d="M0.00137526652,10.6703688 C1.66547974,10.794826 3.15879531,10.3907844 4.52401919,9.38851948 C3.83539446,9.35460779 3.24386994,9.16217143 2.72571429,8.7806961 C2.21040512,8.40130909 1.84576759,7.91354805 1.63679104,7.29531429 C2.08615139,7.35917922 2.52175906,7.36466494 2.97911514,7.24531948 C1.44601279,6.79234286 0.637164179,5.8065039 0.527750533,4.23612468 C0.978422175,4.46306494 1.41962687,4.59568831 1.94002132,4.61376623 C1.25804904,4.13236364 0.822217484,3.52971429 0.647014925,2.76545455 C0.473059701,2.00652468 0.589413646,1.28605714 0.984722814,0.588311688 C2.66261194,2.51423377 4.77335821,3.56652468 7.34964819,3.74365714 C7.32949893,3.51216623 7.29585288,3.2976 7.29457356,3.08284675 C7.2871855,1.83621818 8.01351812,0.729818182 9.19736674,0.269174026 C10.4315565,-0.211044156 11.5571642,0.0152103896 12.5405437,0.88612987 C12.6270576,0.962774026 12.7002345,0.981755844 12.8091684,0.957163636 C13.4300853,0.816903896 14.0169083,0.593361039 14.6097441,0.259667532 C14.3654264,0.972093506 13.9305864,1.4889974 13.3357996,1.89556364 C13.9097015,1.84634805 14.448774,1.68614026 14.9987207,1.4942961 C14.9019723,1.62324156 14.8102132,1.75611429 14.707516,1.88041558 C14.3820256,2.27423377 14.0162367,2.62927792 13.59758,2.92896623 C13.513049,2.98946494 13.4900853,3.05255065 13.4908849,3.14936104 C13.5119936,5.71421299 12.59629,7.90930909 10.7164925,9.7046961 C9.39028785,10.9713351 7.77885928,11.6822026 5.94214286,11.9162805 C3.86795309,12.1806234 1.92716418,11.8112104 0.13196162,10.7524364 C0.0876652452,10.7263169 0.0448720682,10.6977974 0.00137526652,10.6703688" id="Fill-2"></path>
                </g>
            </g>
        </g>
    </g>
</svg>