<?xml version="1.0" encoding="UTF-8" standalone="no"?>
<svg width="11px" height="12px" viewBox="0 0 11 12" version="1.1" xmlns="http://www.w3.org/2000/svg" xmlns:xlink="http://www.w3.org/1999/xlink" xmlns:sketch="http://www.bohemiancoding.com/sketch/ns">
    <!-- Generator: Sketch 3.2.2 (9983) - http://www.bohemiancoding.com/sketch -->
    <title>Imported Layers</title>
    <desc>Created with Sketch.</desc>
    <defs></defs>
    <g id="Page-1" stroke="none" stroke-width="1" fill="none" fill-rule="evenodd" sketch:type="MSPage">
        <g id="Snapme" sketch:type="MSArtboardGroup" transform="translate(-551.000000, -797.000000)" fill="#FFFFFF">
            <g id="Imported-Layers-+-Imported-Layers-+-Imported-Layers" sketch:type="MSLayerGroup" transform="translate(551.000000, 797.000000)">
                <g id="Imported-Layers" sketch:type="MSShapeGroup">
                    <path d="M8.07391571,5.39068371 C8.43544061,5.5206901 8.77011877,5.61741853 9.08140613,5.75723962 C10.1643793,6.24371885 10.8934559,6.98415335 10.9771571,8.12564856 C11.042567,9.01736741 10.7511724,9.82451118 10.1704483,10.5473866 C9.50244061,11.3789521 8.57637548,11.7928179 7.48012644,11.9168051 C7.04973563,11.9654952 6.61251724,11.9807157 6.17829119,11.9821725 C4.20516092,11.9887668 2.23203065,11.9828626 0.258900383,11.9885751 C0.0710574713,11.9891118 0.00956704981,11.9500831 0.00981992337,11.7683962 C0.0158045977,7.92310543 0.0155938697,4.0778147 0.0104099617,0.232523962 C0.0101570881,0.0590415335 0.0572758621,0.00670926518 0.254180077,0.00739936102 C2.17812644,0.0142236422 4.10211494,0.00858785942 6.0260613,0.0129584665 C6.79386973,0.0146837061 7.563659,0.0551693291 8.27140996,0.353865815 C9.28024904,0.779693291 9.99078161,1.46814058 10.2059349,2.47985942 C10.3764559,3.28159744 10.1527471,4.02655591 9.57307663,4.66569968 C9.27531801,4.99403195 8.86014176,5.15129712 8.43329119,5.28697764 C8.32312261,5.32201917 8.21076245,5.35138658 8.07391571,5.39068371 L8.07391571,5.39068371 Z M3.41998851,9.28182748 C4.24047893,9.28182748 5.04065517,9.31100319 5.83686973,9.27228115 C6.43609579,9.24314377 6.86142912,8.79795527 6.8787931,8.29215335 C6.89767433,7.74241534 6.52999617,7.26670927 5.91681992,7.21399361 C5.10256705,7.14402556 4.27883142,7.16515016 3.45914176,7.14824281 C3.44801533,7.14801278 3.43655172,7.16196805 3.41998851,7.17274121 L3.41998851,9.28182748 L3.41998851,9.28182748 Z M3.45062835,4.58814058 C3.49138314,4.59438978 3.51161303,4.60017891 3.53180077,4.60017891 C4.05781992,4.60067732 4.58396552,4.60665815 5.10981609,4.59906709 C5.83783908,4.58852396 6.16973563,4.3313099 6.31222989,3.68484345 C6.46483908,2.99260064 6.19544444,2.52548243 5.4947318,2.44194249 C4.82609195,2.36219808 4.14270115,2.38508626 3.45062835,2.36235144 L3.45062835,4.58814058 L3.45062835,4.58814058 Z" id="Fill-2"></path>
                </g>
            </g>
        </g>
    </g>
</svg>